<svg xmlns="http://www.w3.org/2000/svg" viewBox="0 0 160 92" role="img" aria-label="Low-poly canyon logo">
  <g fill="none" stroke="#e8e8e8" stroke-width="5" stroke-linecap="round" stroke-linejoin="round">
    <polyline points="6,40 34,14 62,14 78,24 96,24 112,36 132,42 154,36" />
    <polyline points="14,54 38,62 56,72 76,82 98,84 120,78 142,70" />
    <polyline points="34,14 44,52 62,14 72,48 78,24 94,62 96,24 112,36 124,58 132,42 142,70" />
    <polyline points="38,62 50,40 56,72 72,48 76,82 94,62 98,84 116,58 120,78 132,60" />
    <polyline points="44,52 72,48 94,62 124,58" />
    <polyline points="50,40 82,44 112,36" />
    <polyline points="72,48 82,44 94,62" />
    <polyline points="96,24 108,14 132,42" />
    <polyline points="120,78 138,52 154,36" />
  </g>
</svg>
