<svg xmlns="http://www.w3.org/2000/svg" viewBox="0 0 240 180" role="img" aria-labelledby="title desc">
  <title id="title">Wireframe Canyon Logo</title>
  <desc id="desc">Abstract contour-line logo of a steep canyon cliff.</desc>

  <rect x="0" y="0" width="240" height="180" rx="12" fill="#2b2d31"/>

  <g fill="none" stroke="#8f949c" stroke-linecap="round" stroke-linejoin="round" vector-effect="non-scaling-stroke">
    <polyline points="10,34 38,30 66,24 92,18 110,16 120,18 132,32 154,44 178,50 208,56 230,60" stroke-width="1.5" opacity="0.62"/>
    <polyline points="10,52 38,48 66,42 92,36 110,34 120,36 132,50 154,62 178,68 208,74 230,78" stroke-width="1.5" opacity="0.6"/>
    <polyline points="10,70 38,66 66,60 92,54 110,52 120,54 132,68 154,80 178,86 208,92 230,96" stroke-width="1.5" opacity="0.58"/>
    <polyline points="10,88 38,84 66,78 92,72 110,70 120,72 132,86 154,98 178,104 208,110 230,114" stroke-width="1.5" opacity="0.56"/>
    <polyline points="10,106 38,102 66,96 92,90 110,88 120,90 132,104 154,116 178,122 208,128 230,132" stroke-width="1.5" opacity="0.54"/>
    <polyline points="10,124 38,120 66,114 92,108 110,106 120,108 132,122 154,134 178,140 208,146 230,150" stroke-width="1.5" opacity="0.52"/>
    <polyline points="10,142 38,138 66,132 92,126 110,124 120,126 132,140 154,152 178,158 208,164 230,168" stroke-width="1.5" opacity="0.5"/>

    <polyline points="118,18 118,126" stroke-width="1.1" opacity="0.28"/>
    <polyline points="124,18 124,126" stroke-width="1.1" opacity="0.28"/>
    <polyline points="130,30 130,138" stroke-width="1.1" opacity="0.24"/>
  </g>
</svg>
